<svg id="Layer_1" data-name="Layer 1" xmlns="http://www.w3.org/2000/svg" viewBox="0 0 3496.71 1011.75"><defs><style>.cls-1,.cls-2{fill:#c94645;}.cls-2{stroke:#c94645;stroke-miterlimit:10;stroke-width:3px;}.cls-3{fill:#5d6d7c;}</style></defs><title>6</title><path id="_Path_" data-name="&lt;Path&gt;" class="cls-1" d="M1303,4685.82c-264,0-478.1-214.05-478.1-478.1s214.05-478.1,478.1-478.1a476.69,476.69,0,0,1,181.68,35.74,506.64,506.64,0,0,0-483.33,14C851,3867,749.92,4030,749.92,4216.62c0,279.39,226.49,505.88,505.88,505.88,150.13,0,285-65.4,377.63-169.26A476.48,476.48,0,0,1,1303,4685.82Z" transform="translate(-749.92 -3710.75)"/><g id="_Group_" data-name="&lt;Group&gt;"><path id="_Path_2" data-name="&lt;Path&gt;" class="cls-1" d="M1003.65,4279.4c29,138.77,152,243,299.33,243s270.37-104.24,299.33-243H1003.65Z" transform="translate(-749.92 -3710.75)"/><path id="_Path_3" data-name="&lt;Path&gt;" class="cls-1" d="M1592.37,4117.62c-41.14-120.29-155.16-206.79-289.4-206.79-112.47,0-210.75,60.72-263.87,151.16a304.27,304.27,0,0,0-25.53,55.63h578.79Z" transform="translate(-749.92 -3710.75)"/></g><g id="_Group_2" data-name="&lt;Group&gt;"><path id="_Compound_Path_" data-name="&lt;Compound Path&gt;" class="cls-1" d="M1091.82,4227a25.49,25.49,0,0,1-6.17,9.85q-7.18,7.73-18.59,7.73h-34.61q-31.85,0-31.85-37.56v-23.2q0-17.49,8.84-28.54,9.57-10.49,22.64-10.49h29.64A32.26,32.26,0,0,1,1074,4147a32.81,32.81,0,0,1,9.85,6.26,30.14,30.14,0,0,1,7.46,11.69,44,44,0,0,1,2.49,15v14a1.55,1.55,0,0,1-1.66,1.84h-77.87v9.39q0,24.3,17.86,24.3h33.51q8.1,0,11.87-4.6t3.77-15.65v-7.92q2.39-.37,3.87-0.46t2.58-.09h2.95q3.13,0,3.13,1.84v11.6A39.2,39.2,0,0,1,1091.82,4227Zm-72.72-61.21q-4.51,5.89-4.88,14.73h66.28q-0.55-9.39-5.43-15a15.36,15.36,0,0,0-12.06-5.62h-32.59Q1023.6,4159.86,1019.1,4165.76Z" transform="translate(-749.92 -3710.75)"/><path id="_Compound_Path_2" data-name="&lt;Compound Path&gt;" class="cls-1" d="M1185.43,4244.55a1.39,1.39,0,0,1-1.47-1.66v-58q0-11.6-5.34-18.13a16.83,16.83,0,0,0-13.62-6.54h-27.06a17.07,17.07,0,0,0-13.62,6.63q-5.52,6.63-5.52,18v58a1.55,1.55,0,0,1-1.84,1.66h-10.31a1.39,1.39,0,0,1-1.47-1.66v-56.15q0-19.88,8.65-30.84t24.12-11H1165q15.28,0,23.84,10.77t8.56,31.21v56a1.46,1.46,0,0,1-1.66,1.66h-10.31Z" transform="translate(-749.92 -3710.75)"/><path id="_Compound_Path_3" data-name="&lt;Compound Path&gt;" class="cls-1" d="M1293.4,4234.7q-8.56,9.85-23.66,9.85h-28.35q-32.59,0-32.59-39.21v-21.17q0-19.7,8.47-29.82a32.7,32.7,0,0,1,10.5-7.09,34.81,34.81,0,0,1,13.62-2.48h28.35q14.91,0,23.56,9.76a30.74,30.74,0,0,1,6.63,12.52,65,65,0,0,1,2,17.12v21.17Q1302,4224.85,1293.4,4234.7Zm-4.69-50.72q0-24.12-19.88-24.12H1242.5q-19.88,0-19.88,24.3v21.17q0,24.3,19.88,24.3h26.33q19.88,0,19.88-24.3V4184Z" transform="translate(-749.92 -3710.75)"/><path id="_Compound_Path_4" data-name="&lt;Compound Path&gt;" class="cls-1" d="M1404,4145a1.47,1.47,0,0,1,1.66,1.66v55.89q0,20.66-8.56,31.35t-23.84,10.7h-27.06q-15.46,0-24.12-11t-8.65-30.65v-56.15a1.39,1.39,0,0,1,1.47-1.66h10.49a1.55,1.55,0,0,1,1.84,1.66v57.81q0,11.6,5.43,18.13a16.89,16.89,0,0,0,13.53,6.54h27.06a16.81,16.81,0,0,0,13.62-6.55q5.34-6.55,5.34-18.17v-57.93a1.39,1.39,0,0,1,1.47-1.66H1404Z" transform="translate(-749.92 -3710.75)"/><path id="_Compound_Path_5" data-name="&lt;Compound Path&gt;" class="cls-1" d="M1468,4242q-1.29,2.58-2.21,2.58h-13.62q-0.92,0-2.21-2.39l-36.82-94.81v-0.74a1.47,1.47,0,0,1,1.66-1.66h11q1.11,0,2.39,2.76l30.74,78.06,30.74-78.06q1.29-2.76,2-2.76h11.78a1.39,1.39,0,0,1,1.47,1.66v0.74Z" transform="translate(-749.92 -3710.75)"/><path id="_Compound_Path_6" data-name="&lt;Compound Path&gt;" class="cls-1" d="M1596.61,4234.7q-8.56,9.85-23.66,9.85H1544.6q-32.58,0-32.58-39.21v-21.17q0-19.7,8.47-29.82a32.7,32.7,0,0,1,10.49-7.09,34.81,34.81,0,0,1,13.62-2.48H1573q14.91,0,23.56,9.76a30.75,30.75,0,0,1,6.63,12.52,65,65,0,0,1,2,17.12v21.17Q1605.17,4224.85,1596.61,4234.7Zm-4.69-50.72q0-24.12-19.88-24.12h-26.33q-19.88,0-19.88,24.3v21.17q0,24.3,19.88,24.3H1572q19.88,0,19.88-24.3V4184Z" transform="translate(-749.92 -3710.75)"/></g><text x="-749.92" y="-3710.75"/><path class="cls-2" d="M2162.49,4168.89a94.81,94.81,0,0,1-22.94,36.64q-26.71,28.77-69.17,28.77H1941.61q-118.5,0-118.49-139.72v-86.29q0-65.06,32.87-106.16,35.6-39,84.24-39h110.27q25.33,0,45.54,8.22a122,122,0,0,1,36.64,23.29,112.09,112.09,0,0,1,27.74,43.49q9.25,25.68,9.25,55.82V4046q0,6.86-6.16,6.85H1873.81v34.93q0,90.4,66.43,90.4h124.65q30.13,0,44.18-17.12t14-58.21v-29.45q8.89-1.36,14.38-1.71t9.59-.34h11q11.64,0,11.64,6.85v43.15Q2169.68,4148,2162.49,4168.89ZM1892,3941.17q-16.79,21.93-18.15,54.79h246.56q-2.05-34.93-20.2-55.82t-44.86-20.89H1934.08Q1908.73,3919.25,1892,3941.17Z" transform="translate(-749.92 -3710.75)"/><path class="cls-2" d="M2545,4234.3c-3.66,0-5.48-2.05-5.48-6.16V4012.4q0-43.15-19.86-67.46T2469,3920.62H2368.29q-30.15,0-50.68,24.66t-20.55,67.12v215.74q0,6.16-6.85,6.16h-38.35c-3.66,0-5.48-2.05-5.48-6.16V4019.25q0-74,32.19-114.72t89.72-40.75H2469q56.84,0,88.69,40.07t31.85,116.09v208.2q0,6.16-6.16,6.16H2545Z" transform="translate(-749.92 -3710.75)"/><path class="cls-2" d="M2980.91,4197.66q-31.85,36.65-88,36.64H2787.43q-121.23,0-121.23-145.88v-78.76q0-73.28,31.51-111a121.58,121.58,0,0,1,39-26.37q21.91-9.25,50.68-9.25H2892.9q55.48,0,87.66,36.3,17.11,19.18,24.66,46.57t7.53,63.69v78.76Q3012.75,4161,2980.91,4197.66ZM2963.44,4009q0-89.71-74-89.72h-97.94q-74,0-74,90.4v78.76q0,90.4,74,90.4h97.94q74,0,74-90.4V4009Z" transform="translate(-749.92 -3710.75)"/><path class="cls-2" d="M3426.41,3863.78c4.11,0,6.16,2.07,6.16,6.18v207.9q0,76.86-31.85,116.64T3312,4234.3H3211.36q-57.53,0-89.72-40.75t-32.19-114V3870.63c0-4.11,1.82-6.16,5.48-6.16h39c4.56,0,6.85,2.05,6.85,6.16v215.05q0,43.15,20.2,67.46t50.34,24.31H3312q30.82,0,50.68-24.37t19.86-67.61V3870c0-4.11,1.82-6.18,5.48-6.18h38.35Z" transform="translate(-749.92 -3710.75)"/><path class="cls-2" d="M3699,4224.71q-4.8,9.6-8.22,9.59h-50.68q-3.43,0-8.22-8.9l-137-352.71v-2.74q0-6.16,6.16-6.16h41.09q4.11,0,8.9,10.27l114.37,290.39,114.38-290.39q4.78-10.27,7.53-10.27h43.83q5.47,0,5.48,6.16v2.74Z" transform="translate(-749.92 -3710.75)"/><path class="cls-2" d="M4211.62,4197.66q-31.85,36.65-88,36.64H4018.14q-121.23,0-121.23-145.88v-78.76q0-73.28,31.51-111a121.58,121.58,0,0,1,39-26.37q21.91-9.25,50.68-9.25h105.47q55.48,0,87.66,36.3,17.11,19.18,24.66,46.57t7.53,63.69v78.76Q4243.47,4161,4211.62,4197.66ZM4194.15,4009q0-89.71-74-89.72h-97.94q-74,0-74,90.4v78.76q0,90.4,74,90.4h97.94q74,0,74-90.4V4009Z" transform="translate(-749.92 -3710.75)"/><path class="cls-3" d="M1977.8,4570.15h-35V4461l-26.6,72.55h-10.84c-20.69,0-24.63-12.7-26.6-17.23L1858.1,4461v109.12h-35V4358.56h21.67c13.79,0,15.76,7.86,15.76,7.86l40.89,121.52,38.92-121.82c0.49-.91,3-7.56,15.76-7.56h21.68v211.59Z" transform="translate(-749.92 -3710.75)"/><path class="cls-3" d="M2164,4570.15h-38.92l-31-145.7-31,145.7h-38.92l52.22-211.59h19.21c14.78,0,17.24,5.74,18.72,11.49Z" transform="translate(-749.92 -3710.75)"/><path class="cls-3" d="M2315.72,4570.15l-47.29-94.61v94.61h-35V4366.72c0-6.65,7.39-7.86,11.33-8.16h23.64v77.08l43.35-76.48h36.95l-55.66,95.22,59.6,115.77h-36.94Z" transform="translate(-749.92 -3710.75)"/><path class="cls-3" d="M2546.25,4548.69c-3.94,5.44-9.85,13.9-11.33,15.72-2.46,2.72-7.88,5.74-19.21,5.74H2436.9V4364.6c0.49-3.32,4.93-6,10.84-6h92.12L2528,4374.28c-2,2.72-7.39,6-18.72,6h-28.57c-4.93,0-8.37,2.12-8.37,5.14v62.87h53.2c-3.94,5.44-9.85,14.21-11.33,16-2.46,2.72-7.39,5.74-18.72,5.74h-14.78c-4.43,0-8.37,2.42-8.37,5.14v73.45h73.89Z" transform="translate(-749.92 -3710.75)"/><path class="cls-3" d="M2761.68,4358.56c10.34,0,14.28,4.84,14.28,8.46v203.13h-25.12c-8.38,0-9.85-3-10.34-4.53V4358.56h21.18Z" transform="translate(-749.92 -3710.75)"/><path class="cls-3" d="M2988.28,4374.28c-2,2.72-7.39,5.74-18.72,5.74H2942c-4.93,0-8.37,2.42-8.87,5.14v185H2908c-8.38,0-9.85-3-9.85-4.53V4380h-49.75v-14.81c0-3.63,4.93-6.65,10.84-6.65H3000.1Z" transform="translate(-749.92 -3710.75)"/><path class="cls-3" d="M3269.34,4358.56c10.84,0,14.28,4.84,14.28,8.46v203.13h-35.47V4478c-0.49-2.72-3.94-4.84-8.38-4.84h-38.42v97h-35.47V4367c0-3.63,3.45-8.46,14.28-8.46h21.18v85.54c0,6,3.94,7.56,12.32,7.56h34.48v-93.1h21.18Z" transform="translate(-749.92 -3710.75)"/><path class="cls-3" d="M3483.12,4570.15H3444.2l-31-145.7-31,145.7h-38.92l52.22-211.59h19.21c14.78,0,17.24,5.74,18.72,11.49Z" transform="translate(-749.92 -3710.75)"/><path class="cls-3" d="M3615.63,4358.56c23.65,0,44.83,11.79,44.83,26.6v54.71c0,20.56-16.26,35.37-50.25,35.37H3589v94.92h-25.12c-8.38,0-9.85-3-9.85-4.53V4358.56h61.57Zm10.84,30.53c-1-5.74-8.87-10.28-18.72-10.28H3589V4455h18.72c9.85,0,17.73-4.54,18.72-10.28v-55.62Z" transform="translate(-749.92 -3710.75)"/><path class="cls-3" d="M3812.66,4358.56c23.65,0,44.83,11.79,44.83,26.6v54.71c0,20.56-16.26,35.37-50.25,35.37h-21.18v94.92h-25.12c-8.38,0-9.85-3-9.85-4.53V4358.56h61.57Zm10.84,30.53c-1-5.74-8.87-10.28-18.72-10.28h-18.72V4455h18.72c9.85,0,17.73-4.54,18.72-10.28v-55.62Z" transform="translate(-749.92 -3710.75)"/><path class="cls-3" d="M4062.41,4548.69c-3.94,5.44-9.85,13.9-11.33,15.72-2.46,2.72-7.88,5.74-19.21,5.74H3953V4364.6c0.49-3.32,4.93-6,10.84-6H4056l-11.82,15.72c-2,2.72-7.39,6-18.72,6h-28.57c-4.93,0-8.37,2.12-8.37,5.14v62.87h53.2c-3.94,5.44-9.85,14.21-11.33,16-2.46,2.72-7.39,5.74-18.72,5.74h-14.78c-4.43,0-8.37,2.42-8.37,5.14v73.45h73.89Z" transform="translate(-749.92 -3710.75)"/><path class="cls-3" d="M4246.63,4570.15h-16.26c-19.21,0-22.17-9.37-23.65-13.6L4168.8,4452v118.19h-35.47V4358.56h16.26c19.7,0,23.15,5.74,25.12,11.79l36.45,110V4358.56h35.47v211.59Z" transform="translate(-749.92 -3710.75)"/></svg>